<?xml version="1.0" standalone="no"?>
<!DOCTYPE svg PUBLIC "-//W3C//DTD SVG 20010904//EN"
 "http://www.w3.org/TR/2001/REC-SVG-20010904/DTD/svg10.dtd">
<svg version="1.0" xmlns="http://www.w3.org/2000/svg"
 width="200.000000pt" height="200.000000pt" viewBox="0 0 200.000000 200.000000"
 preserveAspectRatio="xMidYMid meet">
<metadata>
Created by potrace 1.14, written by Peter Selinger 2001-2017
</metadata>
<g transform="translate(0.000000,200.000000) scale(0.100000,-0.100000)"
fill="#000000" stroke="none">
<path d="M450 1784 c-74 -20 -136 -58 -192 -118 -76 -80 -100 -145 -123 -333
-12 -102 -14 -121 -20 -173 -4 -30 -8 -66 -10 -80 -4 -28 -15 -126 -20 -179
-2 -19 -6 -50 -9 -70 -23 -153 -28 -228 -17 -286 16 -86 53 -158 113 -218 58
-59 104 -86 186 -110 45 -14 135 -16 642 -16 444 0 601 4 637 13 146 39 259
152 297 298 14 55 15 147 2 243 -4 28 -9 64 -11 80 -2 17 -7 50 -10 75 -3 25
-7 61 -9 80 -2 19 -7 56 -10 82 -3 27 -8 67 -11 90 -11 105 -33 274 -39 311
-24 137 -148 268 -294 311 -77 22 -1019 22 -1102 0z m1080 -204 c75 -45 114
-103 124 -185 3 -27 8 -66 11 -85 2 -19 7 -56 10 -82 8 -74 16 -140 20 -168 2
-14 7 -52 10 -85 3 -33 8 -71 10 -85 3 -14 7 -50 10 -80 3 -30 9 -81 14 -114
15 -112 -1 -176 -62 -234 -67 -64 -50 -62 -691 -60 -651 3 -611 -1 -678 77
-53 62 -60 100 -44 229 3 28 8 76 11 105 3 28 10 81 15 117 5 36 12 93 15 128
4 35 8 72 10 83 2 11 7 48 10 82 3 34 8 73 10 87 2 14 7 50 11 80 8 69 34 121
79 157 65 52 64 52 590 50 415 -2 494 -4 515 -17z"/>
<path d="M497 932 c-52 -32 -62 -102 -22 -151 32 -37 205 -123 305 -151 41
-11 120 -23 175 -27 156 -9 278 18 439 98 110 55 134 74 147 118 14 46 -6 93
-49 114 -38 19 -70 15 -122 -18 -163 -103 -357 -138 -525 -95 -69 18 -203 78
-235 105 -24 21 -84 24 -113 7z"/>
</g>
</svg>
